{
	"asset":{
		"generator":"Khronos glTF Blender I/O v4.2.70",
		"version":"2.0"
	},
	"scene":0,
	"scenes":[
		{
			"name":"Scene",
			"nodes":[
				4
			]
		}
	],
	"nodes":[
		{
			"mesh":0,
			"name":"CoordinateSystem",
			"translation":[
				-0.003199740080162883,
				0.01753392443060875,
				-0.0031997396145015955
			]
		},
		{
			"mesh":1,
			"name":"X_axis",
			"scale":[
				0.05999999865889549,
				0.05999999865889549,
				0.05999999865889549
			],
			"translation":[
				-0.010767878964543343,
				0.014332682825624943,
				-5.500019597093342e-06
			]
		},
		{
			"mesh":2,
			"name":"Y_axis",
			"scale":[
				0.05999999865889549,
				0.05999999865889549,
				0.05999999865889549
			],
			"translation":[
				0.0007127809221856296,
				0.024210168048739433,
				0
			]
		},
		{
			"mesh":3,
			"name":"Z_axis",
			"scale":[
				0.05999999865889549,
				0.05999999865889549,
				0.05999999865889549
			],
			"translation":[
				0.0008754920563660562,
				0.014333982020616531,
				-0.00931331142783165
			]
		},
		{
			"children":[
				0,
				1,
				2,
				3
			],
			"name":"Coordinates",
			"rotation":[
				0,
				1,
				0,
				0
			]
		}
	],
	"materials":[
		{
			"name":"Coordinates",
			"pbrMetallicRoughness": {
				"baseColorTexture": {
					"index": 0
				},
				"metallicFactor": 0.0,
				"roughnessFactor": 0.735
			}
		}
	],
	"meshes":[
		{
			"name":"CoordinateSystem",
			"primitives":[
				{
					"attributes":{
						"POSITION":0,
						"NORMAL":1,
						"TEXCOORD_0":2
					},
					"indices":3,
					"material":0
				}
			]
		},
		{
			"name":"X_axis",
			"primitives":[
				{
					"attributes":{
						"POSITION":4,
						"NORMAL":5,
						"TEXCOORD_0":6
					},
					"indices":7,
					"material":0
				}
			]
		},
		{
			"name":"Y_axis",
			"primitives":[
				{
					"attributes":{
						"POSITION":8,
						"NORMAL":9,
						"TEXCOORD_0":10
					},
					"indices":11,
					"material":0
				}
			]
		},
		{
			"name":"Z_axis",
			"primitives":[
				{
					"attributes":{
						"POSITION":12,
						"NORMAL":13,
						"TEXCOORD_0":14
					},
					"indices":15,
					"material":0
				}
			]
		}
	],
	"accessors":[
		{
			"bufferView":0,
			"componentType":5126,
			"count":883,
			"max":[
				0.003958637826144695,
				0.003958638291805983,
				0.003958637360483408
			],
			"min":[
				-0.003958637826144695,
				-0.003958638291805983,
				-0.003958637360483408
			],
			"type":"VEC3"
		},
		{
			"bufferView":1,
			"componentType":5126,
			"count":883,
			"type":"VEC3"
		},
		{
			"bufferView":2,
			"componentType":5126,
			"count":883,
			"type":"VEC2"
		},
		{
			"bufferView":3,
			"componentType":5123,
			"count":3420,
			"type":"SCALAR"
		},
		{
			"bufferView":4,
			"componentType":5126,
			"count":2252,
			"max":[
				0.03458702936768532,
				0.023930205032229424,
				0.003500003833323717
			],
			"min":[
				-0.03458702936768532,
				-0.023930205032229424,
				-0.003500003833323717
			],
			"type":"VEC3"
		},
		{
			"bufferView":5,
			"componentType":5126,
			"count":2252,
			"type":"VEC3"
		},
		{
			"bufferView":6,
			"componentType":5126,
			"count":2252,
			"type":"VEC2"
		},
		{
			"bufferView":7,
			"componentType":5123,
			"count":11064,
			"type":"SCALAR"
		},
		{
			"bufferView":8,
			"componentType":5126,
			"count":1820,
			"max":[
				0.03368259221315384,
				0.023930219933390617,
				0.003500006627291441
			],
			"min":[
				-0.03368258476257324,
				-0.023930219933390617,
				-0.0035000008065253496
			],
			"type":"VEC3"
		},
		{
			"bufferView":9,
			"componentType":5126,
			"count":1820,
			"type":"VEC3"
		},
		{
			"bufferView":10,
			"componentType":5126,
			"count":1820,
			"type":"VEC2"
		},
		{
			"bufferView":11,
			"componentType":5123,
			"count":8976,
			"type":"SCALAR"
		},
		{
			"bufferView":12,
			"componentType":5126,
			"count":1708,
			"max":[
				0.03192058950662613,
				0.023930201306939125,
				0.003500006627291441
			],
			"min":[
				-0.03192055970430374,
				-0.023930229246616364,
				-0.0035000008065253496
			],
			"type":"VEC3"
		},
		{
			"bufferView":13,
			"componentType":5126,
			"count":1708,
			"type":"VEC3"
		},
		{
			"bufferView":14,
			"componentType":5126,
			"count":1708,
			"type":"VEC2"
		},
		{
			"bufferView":15,
			"componentType":5123,
			"count":8496,
			"type":"SCALAR"
		}
	],
	"bufferViews":[
		{
			"buffer":0,
			"byteLength":10596,
			"byteOffset":0,
			"target":34962
		},
		{
			"buffer":0,
			"byteLength":10596,
			"byteOffset":10596,
			"target":34962
		},
		{
			"buffer":0,
			"byteLength":7064,
			"byteOffset":21192,
			"target":34962
		},
		{
			"buffer":0,
			"byteLength":6840,
			"byteOffset":28256,
			"target":34963
		},
		{
			"buffer":0,
			"byteLength":27024,
			"byteOffset":35096,
			"target":34962
		},
		{
			"buffer":0,
			"byteLength":27024,
			"byteOffset":62120,
			"target":34962
		},
		{
			"buffer":0,
			"byteLength":18016,
			"byteOffset":89144,
			"target":34962
		},
		{
			"buffer":0,
			"byteLength":22128,
			"byteOffset":107160,
			"target":34963
		},
		{
			"buffer":0,
			"byteLength":21840,
			"byteOffset":129288,
			"target":34962
		},
		{
			"buffer":0,
			"byteLength":21840,
			"byteOffset":151128,
			"target":34962
		},
		{
			"buffer":0,
			"byteLength":14560,
			"byteOffset":172968,
			"target":34962
		},
		{
			"buffer":0,
			"byteLength":17952,
			"byteOffset":187528,
			"target":34963
		},
		{
			"buffer":0,
			"byteLength":20496,
			"byteOffset":205480,
			"target":34962
		},
		{
			"buffer":0,
			"byteLength":20496,
			"byteOffset":225976,
			"target":34962
		},
		{
			"buffer":0,
			"byteLength":13664,
			"byteOffset":246472,
			"target":34962
		},
		{
			"buffer":0,
			"byteLength":16992,
			"byteOffset":260136,
			"target":34963
		}
	],
	"buffers":[
		{
			"byteLength":277128,
			"uri":"Axis.bin"
		}
	],
	"images": [
		{
		"uri": "Axes_baseColor1.png"
		}
  	],
    "textures": [
		{
		"source": 0
		}
	]
}
  