{
	"asset":{
		"generator":"Khronos glTF Blender I/O v4.2.70",
		"version":"2.0"
	},
	"scene":0,
	"scenes":[
		{
			"name":"Scene",
			"nodes":[
				2
			]
		}
	],
	"nodes":[
		{
			"mesh":0,
			"name":"B",
			"rotation":[
				0.27059805393218994,
				-0.27059808373451233,
				-0.6532815098762512,
				0.6532815098762512
			],
			"translation":[
				2.0999999046325684,
				1.9999998807907104,
				2.0999999046325684
			]
		},
		{
			"children":[
				0
			],
			"mesh":1,
			"name":"A",
			"rotation":[
				0,
				-0.37258365750312805,
				0,
				0.9279986619949341
			],
			"scale":[
				0.7905694246292114,
				1,
				0.7905694246292114
			],
			"translation":[
				0,
				-1.9999998807907104,
				0
			]
		},
		{
			"children":[
				1
			],
			"mesh":2,
			"name":"Cube",
			"rotation":[
				0,
				0.3826834559440613,
				0,
				0.9238795638084412
			],
			"scale":[
				1,
				1,
				1.9999998807907104
			]
		}
	],
	"meshes":[
		{
			"name":"B",
			"primitives":[
				{
					"attributes":{
						"POSITION":0,
						"NORMAL":1,
						"TEXCOORD_0":2
					},
					"indices":3
				}
			]
		},
		{
			"name":"A",
			"primitives":[
				{
					"attributes":{
						"POSITION":4,
						"NORMAL":5,
						"TEXCOORD_0":6
					},
					"indices":7
				}
			]
		},
		{
			"name":"Cube",
			"primitives":[
				{
					"attributes":{
						"POSITION":8,
						"NORMAL":9,
						"TEXCOORD_0":10
					},
					"indices":11
				}
			]
		}
	],
	"accessors":[
		{
			"bufferView":0,
			"componentType":5126,
			"count":128,
			"max":[
				1,
				1,
				1
			],
			"min":[
				-1,
				-1,
				-1
			],
			"type":"VEC3"
		},
		{
			"bufferView":1,
			"componentType":5126,
			"count":128,
			"type":"VEC3"
		},
		{
			"bufferView":2,
			"componentType":5126,
			"count":128,
			"type":"VEC2"
		},
		{
			"bufferView":3,
			"componentType":5123,
			"count":186,
			"type":"SCALAR"
		},
		{
			"bufferView":4,
			"componentType":5126,
			"count":192,
			"max":[
				1,
				1,
				1
			],
			"min":[
				-1,
				-1,
				-1
			],
			"type":"VEC3"
		},
		{
			"bufferView":5,
			"componentType":5126,
			"count":192,
			"type":"VEC3"
		},
		{
			"bufferView":6,
			"componentType":5126,
			"count":192,
			"type":"VEC2"
		},
		{
			"bufferView":7,
			"componentType":5123,
			"count":372,
			"type":"SCALAR"
		},
		{
			"bufferView":8,
			"componentType":5126,
			"count":24,
			"max":[
				1,
				1,
				1
			],
			"min":[
				-1,
				-1,
				-1
			],
			"type":"VEC3"
		},
		{
			"bufferView":9,
			"componentType":5126,
			"count":24,
			"type":"VEC3"
		},
		{
			"bufferView":10,
			"componentType":5126,
			"count":24,
			"type":"VEC2"
		},
		{
			"bufferView":11,
			"componentType":5123,
			"count":36,
			"type":"SCALAR"
		}
	],
	"bufferViews":[
		{
			"buffer":0,
			"byteLength":1536,
			"byteOffset":0,
			"target":34962
		},
		{
			"buffer":0,
			"byteLength":1536,
			"byteOffset":1536,
			"target":34962
		},
		{
			"buffer":0,
			"byteLength":1024,
			"byteOffset":3072,
			"target":34962
		},
		{
			"buffer":0,
			"byteLength":372,
			"byteOffset":4096,
			"target":34963
		},
		{
			"buffer":0,
			"byteLength":2304,
			"byteOffset":4468,
			"target":34962
		},
		{
			"buffer":0,
			"byteLength":2304,
			"byteOffset":6772,
			"target":34962
		},
		{
			"buffer":0,
			"byteLength":1536,
			"byteOffset":9076,
			"target":34962
		},
		{
			"buffer":0,
			"byteLength":744,
			"byteOffset":10612,
			"target":34963
		},
		{
			"buffer":0,
			"byteLength":288,
			"byteOffset":11356,
			"target":34962
		},
		{
			"buffer":0,
			"byteLength":288,
			"byteOffset":11644,
			"target":34962
		},
		{
			"buffer":0,
			"byteLength":192,
			"byteOffset":11932,
			"target":34962
		},
		{
			"buffer":0,
			"byteLength":72,
			"byteOffset":12124,
			"target":34963
		}
	],
	"buffers":[
		{
			"byteLength":12196,
			"uri":"Rectangle.bin"
		}
	]
}
